<svg xmlns="http://www.w3.org/2000/svg" viewBox="0 0 131.51 30.68"><defs><style>.cls-1{fill:#fff}</style></defs><title>Asset 16</title><g id="Layer_2" data-name="Layer 2"><g id="Layer_1-2" data-name="Layer 1"><path class="cls-1" d="M0 .92C0 .61.13.48.44.48h5.2a.67.67 0 0 1 .7.44l7.52 17H14l7.39-17a.67.67 0 0 1 .7-.44h5.11c.31 0 .44.13.44.44v28.85c0 .31-.13.44-.44.44h-4.91c-.31 0-.44-.13-.44-.44V13h-.17l-5.51 12.57a.84.84 0 0 1-.83.57h-3a.84.84 0 0 1-.83-.57L6 13h-.19v16.77c0 .31-.13.44-.44.44H.44c-.31 0-.44-.13-.44-.44zm57.12 0c0-.31.13-.44.44-.44h5.25a.81.81 0 0 1 .74.44L74 19.63h.22V.92c0-.31.13-.44.44-.44h4.94c.31 0 .44.13.44.44v28.85c0 .31-.13.44-.44.44h-5.2a.81.81 0 0 1-.74-.44L63.16 11.1h-.22v18.67c0 .31-.13.44-.44.44h-4.94c-.31 0-.44-.13-.44-.44zm56.21 28.63a13.69 13.69 0 0 1-4.94-2.93.5.5 0 0 1 0-.74l3.32-3.8a.41.41 0 0 1 .66 0 12.4 12.4 0 0 0 7.78 3.06c3 0 4.85-1.4 4.85-3.54 0-1.88-1.22-2.84-4.59-3.32l-1.62-.28c-6.25-.87-9.4-3.85-9.4-8.92a8.37 8.37 0 0 1 2.84-6.6 11.39 11.39 0 0 1 7.7-2.48A16.07 16.07 0 0 1 130 3.1a.39.39 0 0 1 .09.66l-2.67 4a.44.44 0 0 1-.61.13 12.48 12.48 0 0 0-6.91-2.27c-2.58 0-4 1.31-4 3.23 0 1.75 1.31 2.8 4.63 3.28l1.57.22c6.25.83 9.35 3.85 9.35 9 0 5.59-4.2 9.35-11.67 9.35a19.46 19.46 0 0 1-6.45-1.15zm-57.43.65h-5.77a.53.53 0 0 1-.58-.44L46 18.92 42.62 8.35h-.14l-3.41 10.57-1.8 5.55-1.71 5.29a.54.54 0 0 1-.58.44h-5.82c-.31 0-.4-.14-.31-.44L39.24.45a.54.54 0 0 1 .58-.45h5.6a.54.54 0 0 1 .58.45l10.2 29.31c.1.3 0 .44-.3.44z"/><circle class="cls-1" cx="42.53" cy="23.96" r="4.24"/><path class="cls-1" d="M108.31 30.2h-5.78a.53.53 0 0 1-.58-.44l-3.5-10.84L95 8.35h-.14l-3.39 10.57-1.8 5.55L88 29.76a.54.54 0 0 1-.58.44h-5.86c-.31 0-.4-.14-.31-.44L91.64.45a.54.54 0 0 1 .58-.45h5.6a.54.54 0 0 1 .58.45l10.21 29.31c.09.3 0 .44-.3.44z"/><circle class="cls-1" cx="94.93" cy="23.96" r="4.24"/></g></g></svg>